<?xml version="1.0" encoding="UTF-8"?>
<svg version="1.1" xmlns="http://www.w3.org/2000/svg" width="357" height="402">
<path d="M0 0 C16.83 0 33.66 0 51 0 C51.33 0.99 51.66 1.98 52 3 C54.64 3 57.28 3 60 3 C60 3.99 60 4.98 60 6 C61.65 6 63.3 6 65 6 C65 6.66 65 7.32 65 8 C65.99 8.33 66.98 8.66 68 9 C68 9.66 68 10.32 68 11 C68.66 11 69.32 11 70 11 C70 11.99 70 12.98 70 14 C70.99 14.33 71.98 14.66 73 15 C73 18.63 73 22.26 73 26 C72.01 26.33 71.02 26.66 70 27 C70 30.3 70 33.6 70 37 C69.34 37 68.68 37 68 37 C68 38.65 68 40.3 68 42 C67.01 42 66.02 42 65 42 C65 43.65 65 45.3 65 47 C63.0625 47.5625 63.0625 47.5625 61 48 C60 47 60 47 59.9375 43.4375 C59.958125 42.303125 59.97875 41.16875 60 40 C59.01 40 58.02 40 57 40 C57 39.01 57 38.02 57 37 C56.34 37 55.68 37 55 37 C55 36.34 55 35.68 55 35 C52.36 34.67 49.72 34.34 47 34 C47 33.34 47 32.68 47 32 C34.46 32 21.92 32 9 32 C9 32.66 9 33.32 9 34 C5.24600202 35.2039337 1.66782588 35.09877617 -2.25 35.0625 C-3.51328125 35.05347656 -4.7765625 35.04445313 -6.078125 35.03515625 C-7.04234375 35.02355469 -8.0065625 35.01195312 -9 35 C-9 35.66 -9 36.32 -9 37 C-9.92683594 37.04898438 -10.85367188 37.09796875 -11.80859375 37.1484375 C-13.00613281 37.22320312 -14.20367187 37.29796875 -15.4375 37.375 C-17.22994141 37.47941406 -17.22994141 37.47941406 -19.05859375 37.5859375 C-20.02925781 37.72257812 -20.99992187 37.85921875 -22 38 C-22.495 38.99 -22.495 38.99 -23 40 C-27.29 40 -31.58 40 -36 40 C-36 40.66 -36 41.32 -36 42 C-38.64 42.33 -41.28 42.66 -44 43 C-44 43.66 -44 44.32 -44 45 C-47.3 45 -50.6 45 -54 45 C-54.33 45.99 -54.66 46.98 -55 48 C-57.31 48 -59.62 48 -62 48 C-62 48.66 -62 49.32 -62 50 C-64.64 50 -67.28 50 -70 50 C-70 50.99 -70 51.98 -70 53 C-72.64 53 -75.28 53 -78 53 C-78 52.01 -78 51.02 -78 50 C-78.66 50 -79.32 50 -80 50 C-80 46.7 -80 43.4 -80 40 C-80.99 40 -81.98 40 -83 40 C-83 37.36 -83 34.72 -83 32 C-83.99 31.67 -84.98 31.34 -86 31 C-86.29296875 24.9453125 -86.29296875 24.9453125 -86 23 C-80.73149092 19.48766061 -76.28842188 18.74846312 -70 19 C-69.67 18.01 -69.34 17.02 -69 16 C-65.7 16 -62.4 16 -59 16 C-59 15.34 -59 14.68 -59 14 C-56.36 14 -53.72 14 -51 14 C-51 13.01 -51 12.02 -51 11 C-47.7 11 -44.4 11 -41 11 C-40.67 10.01 -40.34 9.02 -40 8 C-36.7 8 -33.4 8 -30 8 C-30 7.34 -30 6.68 -30 6 C-25.71 6 -21.42 6 -17 6 C-17 5.01 -17 4.02 -17 3 C-11.72 3 -6.44 3 -1 3 C-0.67 2.01 -0.34 1.02 0 0 Z " fill="#2C3A50" transform="translate(258,225)"/>
<path d="M0 0 C1.72974441 0.00015918 3.45949355 0.0058569 5.18920898 0.01586914 C6.09783188 0.01728409 7.00645477 0.01869904 7.94261169 0.02015686 C10.85687494 0.02577346 13.77106254 0.03832874 16.68530273 0.05102539 C18.65600475 0.05603825 20.62670797 0.06060153 22.59741211 0.06469727 C27.43923832 0.07574828 32.28100768 0.09302401 37.12280273 0.11352539 C37.12280273 0.77352539 37.12280273 1.43352539 37.12280273 2.11352539 C38.26168945 2.0787207 38.26168945 2.0787207 39.42358398 2.04321289 C40.41745117 2.02516602 41.41131836 2.00711914 42.43530273 1.98852539 C43.42143555 1.96532227 44.40756836 1.94211914 45.42358398 1.91821289 C48.12280273 2.11352539 48.12280273 2.11352539 51.12280273 4.11352539 C52.77829805 4.4985243 54.44504604 4.84145674 56.12280273 5.11352539 C56.12280273 6.10352539 56.12280273 7.09352539 56.12280273 8.11352539 C57.77280273 8.11352539 59.42280273 8.11352539 61.12280273 8.11352539 C61.12280273 8.77352539 61.12280273 9.43352539 61.12280273 10.11352539 C62.11280273 10.44352539 63.10280273 10.77352539 64.12280273 11.11352539 C64.12280273 11.77352539 64.12280273 12.43352539 64.12280273 13.11352539 C64.78280273 13.11352539 65.44280273 13.11352539 66.12280273 13.11352539 C66.25557617 13.82379883 66.38834961 14.53407227 66.52514648 15.26586914 C66.79004883 16.64452148 66.79004883 16.64452148 67.06030273 18.05102539 C67.23432617 18.96754883 67.40834961 19.88407227 67.58764648 20.82836914 C67.89995262 23.06642383 67.89995262 23.06642383 69.12280273 24.11352539 C69.20994105 25.82124897 69.22980281 27.53251188 69.22045898 29.24243164 C69.21723633 30.2769043 69.21401367 31.31137695 69.21069336 32.37719727 C69.20231445 33.46581055 69.19393555 34.55442383 69.18530273 35.67602539 C69.18079102 36.76850586 69.1762793 37.86098633 69.17163086 38.98657227 C69.159801 41.69561034 69.14331817 44.40454138 69.12280273 47.11352539 C65.74817559 46.56628856 64.04045274 46.05862539 61.12280273 44.11352539 C61.12280273 43.45352539 61.12280273 42.79352539 61.12280273 42.11352539 C60.46280273 42.11352539 59.80280273 42.11352539 59.12280273 42.11352539 C59.12280273 41.12352539 59.12280273 40.13352539 59.12280273 39.11352539 C58.13280273 39.11352539 57.14280273 39.11352539 56.12280273 39.11352539 C56.12280273 38.45352539 56.12280273 37.79352539 56.12280273 37.11352539 C53.81280273 37.11352539 51.50280273 37.11352539 49.12280273 37.11352539 C48.79280273 36.12352539 48.46280273 35.13352539 48.12280273 34.11352539 C41.05672355 34.20572883 33.99099012 34.3130258 26.92529297 34.4309082 C24.52072373 34.46923321 22.11609646 34.5040798 19.71142578 34.53540039 C16.25849645 34.58097422 12.80596783 34.63898169 9.35327148 34.69946289 C8.27506638 34.7110141 7.19686127 34.72256531 6.08598328 34.73446655 C4.58476677 34.76427109 4.58476677 34.76427109 3.05322266 34.79467773 C2.17163986 34.8080014 1.29005707 34.82132507 0.38175964 34.83505249 C-2.15797557 34.9766264 -2.15797557 34.9766264 -4.87719727 37.11352539 C-7.07712053 37.38228176 -9.2889209 37.56069946 -11.50219727 37.67602539 C-15.50897276 37.54005557 -15.50897276 37.54005557 -18.87719727 39.11352539 C-21.40769129 39.18666106 -23.91024563 39.20600066 -26.43969727 39.17602539 C-27.15061523 39.17151367 -27.8615332 39.16700195 -28.59399414 39.16235352 C-30.3550974 39.15053403 -32.11615762 39.13259802 -33.87719727 39.11352539 C-34.20719727 40.10352539 -34.53719727 41.09352539 -34.87719727 42.11352539 C-38.83719727 42.11352539 -42.79719727 42.11352539 -46.87719727 42.11352539 C-46.87719727 42.77352539 -46.87719727 43.43352539 -46.87719727 44.11352539 C-49.28265365 45.31625358 -50.82716679 45.21424011 -53.50219727 45.17602539 C-54.7280957 45.16249023 -54.7280957 45.16249023 -55.97875977 45.14868164 C-56.60524414 45.13708008 -57.23172852 45.12547852 -57.87719727 45.11352539 C-57.87719727 45.77352539 -57.87719727 46.43352539 -57.87719727 47.11352539 C-60.00158066 47.1943118 -62.12682957 47.2526168 -64.25219727 47.30102539 C-65.43555664 47.33583008 -66.61891602 47.37063477 -67.83813477 47.40649414 C-69.3424707 47.26147461 -69.3424707 47.26147461 -70.87719727 47.11352539 C-73.30664887 43.46934799 -73.03899301 41.40111267 -72.87719727 37.11352539 C-73.86719727 36.78352539 -74.85719727 36.45352539 -75.87719727 36.11352539 C-76.00094727 34.97915039 -76.12469727 33.84477539 -76.25219727 32.67602539 C-76.45844727 31.50040039 -76.66469727 30.32477539 -76.87719727 29.11352539 C-77.53719727 28.78352539 -78.19719727 28.45352539 -78.87719727 28.11352539 C-78.87719727 24.15352539 -78.87719727 20.19352539 -78.87719727 16.11352539 C-77.88719727 16.11352539 -76.89719727 16.11352539 -75.87719727 16.11352539 C-75.87719727 15.12352539 -75.87719727 14.13352539 -75.87719727 13.11352539 C-71.58719727 13.11352539 -67.29719727 13.11352539 -62.87719727 13.11352539 C-62.54719727 12.12352539 -62.21719727 11.13352539 -61.87719727 10.11352539 C-58.57719727 10.11352539 -55.27719727 10.11352539 -51.87719727 10.11352539 C-51.87719727 9.45352539 -51.87719727 8.79352539 -51.87719727 8.11352539 C-48.57719727 8.11352539 -45.27719727 8.11352539 -41.87719727 8.11352539 C-41.54719727 7.12352539 -41.21719727 6.13352539 -40.87719727 5.11352539 C-36.58719727 5.11352539 -32.29719727 5.11352539 -27.87719727 5.11352539 C-27.87719727 4.45352539 -27.87719727 3.79352539 -27.87719727 3.11352539 C-25.47330102 1.91157727 -23.80705223 1.92648641 -21.12329102 1.83227539 C-20.18678711 1.79489258 -19.2502832 1.75750977 -18.28540039 1.71899414 C-16.3010303 1.64854313 -14.31665527 1.57823117 -12.33227539 1.50805664 C-10.92945313 1.45198242 -10.92945313 1.45198242 -9.49829102 1.39477539 C-8.20556274 1.34933594 -8.20556274 1.34933594 -6.88671875 1.30297852 C-3.60258537 0.99335787 -4.05378252 0.11869585 0 0 Z " fill="#FE0F0F" transform="translate(266.877197265625,169.886474609375)"/>
<path d="M0 0 C5.61 0 11.22 0 17 0 C17.33 1.65 17.66 3.3 18 5 C32.52 5 47.04 5 62 5 C62.33 5.99 62.66 6.98 63 8 C66.3 8 69.6 8 73 8 C73 8.99 73 9.98 73 11 C75.64 11 78.28 11 81 11 C81 11.66 81 12.32 81 13 C81.763125 12.938125 82.52625 12.87625 83.3125 12.8125 C86 13 86 13 87.8125 14.1875 C89.36678206 16.55982525 89.22537188 18.22041345 89 21 C86.03 21 83.06 21 80 21 C79.67 20.01 79.34 19.02 79 18 C65.8 18 52.6 18 39 18 C38.67 18.99 38.34 19.98 38 21 C31.4 21 24.8 21 18 21 C18 21.66 18 22.32 18 23 C16.0625 23.5625 16.0625 23.5625 14 24 C13 23 13 23 12.9375 20.4375 C12.958125 19.633125 12.97875 18.82875 13 18 C12.01 18 11.02 18 10 18 C10 14.04 10 10.08 10 6 C9.01 5.67 8.02 5.34 7 5 C6.67 5.99 6.34 6.98 6 8 C2.7 8 -0.6 8 -4 8 C-4 8.66 -4 9.32 -4 10 C-1.03 10.495 -1.03 10.495 2 11 C2 11.66 2 12.32 2 13 C2.99 13.33 3.98 13.66 5 14 C5 17.96 5 21.92 5 26 C2.36 26 -0.28 26 -3 26 C-3.495 27.485 -3.495 27.485 -4 29 C-5.093125 29.12375 -6.18625 29.2475 -7.3125 29.375 C-11.07381802 29.75464801 -11.07381802 29.75464801 -14 32 C-16.04296875 32.1953125 -16.04296875 32.1953125 -18.1875 32.125 C-19.445625 32.08375 -20.70375 32.0425 -22 32 C-22 32.66 -22 33.32 -22 34 C-24.64 34 -27.28 34 -30 34 C-30 34.99 -30 35.98 -30 37 C-32.64 37 -35.28 37 -38 37 C-38 37.66 -38 38.32 -38 39 C-40.98212913 40.49106457 -43.71609658 40.11941467 -47 40 C-48 39 -48 39 -48.0625 35.4375 C-48.041875 34.303125 -48.02125 33.16875 -48 32 C-48.99 31.67 -49.98 31.34 -51 31 C-51 29.35 -51 27.7 -51 26 C-52.65 26 -54.3 26 -56 26 C-56 28.97 -56 31.94 -56 35 C-55.34 35 -54.68 35 -54 35 C-54 38.3 -54 41.6 -54 45 C-54.66 45 -55.32 45 -56 45 C-56 45.66 -56 46.32 -56 47 C-58.64 47.33 -61.28 47.66 -64 48 C-64 48.66 -64 49.32 -64 50 C-65.65 50 -67.3 50 -69 50 C-69.33 50.99 -69.66 51.98 -70 53 C-71.65 53 -73.3 53 -75 53 C-75 53.66 -75 54.32 -75 55 C-75.66 55 -76.32 55 -77 55 C-77.33 55.99 -77.66 56.98 -78 58 C-79.65 58 -81.3 58 -83 58 C-83 58.99 -83 59.98 -83 61 C-86.22791555 63.1519437 -87.28400809 63.20086443 -91 63 C-91 63.99 -91 64.98 -91 66 C-91.66 66 -92.32 66 -93 66 C-93 66.66 -93 67.32 -93 68 C-95.97 68.495 -95.97 68.495 -99 69 C-99 69.66 -99 70.32 -99 71 C-99.66 71 -100.32 71 -101 71 C-101.33 71.99 -101.66 72.98 -102 74 C-103.32 74 -104.64 74 -106 74 C-106.33 74.99 -106.66 75.98 -107 77 C-108.65 76.67 -110.3 76.34 -112 76 C-111.67 73.69 -111.34 71.38 -111 69 C-110.34 69 -109.68 69 -109 69 C-109 68.01 -109 67.02 -109 66 C-108.01 66 -107.02 66 -106 66 C-106 65.34 -106 64.68 -106 64 C-105.34 64 -104.68 64 -104 64 C-104 63.01 -104 62.02 -104 61 C-103.01 61 -102.02 61 -101 61 C-101 60.01 -101 59.02 -101 58 C-100.01 58 -99.02 58 -98 58 C-98 57.34 -98 56.68 -98 56 C-97.34 56 -96.68 56 -96 56 C-96 55.01 -96 54.02 -96 53 C-95.01 53 -94.02 53 -93 53 C-93 52.01 -93 51.02 -93 50 C-92.01 50 -91.02 50 -90 50 C-90 49.34 -90 48.68 -90 48 C-89.34 48 -88.68 48 -88 48 C-88 47.01 -88 46.02 -88 45 C-87.01 45 -86.02 45 -85 45 C-84.67 44.01 -84.34 43.02 -84 42 C-82.68 42 -81.36 42 -80 42 C-80 41.34 -80 40.68 -80 40 C-79.01 40 -78.02 40 -77 40 C-77 39.01 -77 38.02 -77 37 C-75.35 37 -73.7 37 -72 37 C-72 34.36 -72 31.72 -72 29 C-71.01 29 -70.02 29 -69 29 C-69 28.34 -69 27.68 -69 27 C-68.34 27 -67.68 27 -67 27 C-67 26.01 -67 25.02 -67 24 C-65.02 24 -63.04 24 -61 24 C-61 23.01 -61 22.02 -61 21 C-57.77208445 18.8480563 -56.71599191 18.79913557 -53 19 C-53 18.01 -53 17.02 -53 16 C-51.35 16 -49.7 16 -48 16 C-48 15.01 -48 14.02 -48 13 C-46.35 13 -44.7 13 -43 13 C-43 12.34 -43 11.68 -43 11 C-41.02 11 -39.04 11 -37 11 C-37 10.01 -37 9.02 -37 8 C-35.88625 7.87625 -34.7725 7.7525 -33.625 7.625 C-29.96896323 7.3534187 -29.96896323 7.3534187 -28 5 C-25.8359375 4.8046875 -25.8359375 4.8046875 -23.375 4.875 C-22.14910156 4.90207031 -22.14910156 4.90207031 -20.8984375 4.9296875 C-19.95871094 4.96449219 -19.95871094 4.96449219 -19 5 C-19 4.34 -19 3.68 -19 3 C-13.06 2.67 -7.12 2.34 -1 2 C-0.67 1.34 -0.34 0.68 0 0 Z M-17 11 C-17 11.66 -17 12.32 -17 13 C-15.02 13 -13.04 13 -11 13 C-11 12.34 -11 11.68 -11 11 C-12.98 11 -14.96 11 -17 11 Z M-25 13 C-25 13.99 -25 14.98 -25 16 C-23.02463255 15.65213292 -23.02463255 15.65213292 -21 15 C-20.67 14.34 -20.34 13.68 -20 13 C-21.65 13 -23.3 13 -25 13 Z M-32 16 C-32 16.66 -32 17.32 -32 18 C-33.98 18 -35.96 18 -38 18 C-37.67 18.66 -37.34 19.32 -37 20 C-33.535 19.505 -33.535 19.505 -30 19 C-30 18.01 -30 17.02 -30 16 C-30.66 16 -31.32 16 -32 16 Z M-46 21 C-46.33 21.99 -46.66 22.98 -47 24 C-46.34 24 -45.68 24 -45 24 C-45.33 23.01 -45.66 22.02 -46 21 Z " fill="#FD0D0D" transform="translate(165,56)"/>
<path d="M0 0 C18.15 0 36.3 0 55 0 C55 0.66 55 1.32 55 2 C58.3 2 61.6 2 65 2 C65 2.99 65 3.98 65 5 C66.98 5 68.96 5 71 5 C71 5.66 71 6.32 71 7 C71.66 7 72.32 7 73 7 C73 7.99 73 8.98 73 10 C73.99 10 74.98 10 76 10 C76 10.99 76 11.98 76 13 C76.99 13 77.98 13 79 13 C81.1519437 16.22791555 81.20086443 17.28400809 81 21 C81.99 21 82.98 21 84 21 C84 22.65 84 24.3 84 26 C85.485 26.495 85.485 26.495 87 27 C87 30.3 87 33.6 87 37 C87.66 37 88.32 37 89 37 C89 38.32 89 39.64 89 41 C87.515 41.495 87.515 41.495 86 42 C85.34 41.67 84.68 41.34 84 41 C84 40.34 84 39.68 84 39 C82.515 38.505 82.515 38.505 81 38 C81 37.34 81 36.68 81 36 C79.35 36 77.7 36 76 36 C76 35.34 76 34.68 76 34 C74.35 34 72.7 34 71 34 C71 33.01 71 32.02 71 31 C66.71 31 62.42 31 58 31 C58 30.34 58 29.68 58 29 C49.09 29 40.18 29 31 29 C31 29.66 31 30.32 31 31 C23.08 31 15.16 31 7 31 C6.67 31.99 6.34 32.98 6 34 C0.39 34 -5.22 34 -11 34 C-11 34.66 -11 35.32 -11 36 C-13.64 36 -16.28 36 -19 36 C-19 34.35 -19 32.7 -19 31 C-19.99 30.67 -20.98 30.34 -22 30 C-22 27.69 -22 25.38 -22 23 C-22.66 23 -23.32 23 -24 23 C-24 19.7 -24 16.4 -24 13 C-24.99 12.67 -25.98 12.34 -27 12 C-27 9.69 -27 7.38 -27 5 C-24.36 5 -21.72 5 -19 5 C-18.67 4.01 -18.34 3.02 -18 2 C-12.06 2 -6.12 2 0 2 C0 1.34 0 0.68 0 0 Z " fill="#2C3A4F" transform="translate(239,120)"/>
<path d="M0 0 C2.95097923 0.00538992 5.90180842 0.00001379 8.8527832 -0.00634766 C10.74275749 -0.00568734 12.63273169 -0.00440714 14.52270508 -0.00244141 C15.39780228 -0.00446564 16.27289948 -0.00648987 17.17451477 -0.00857544 C21.60635714 0.00835909 25.76521688 0.23638439 30.12817383 1.13037109 C30.12817383 1.79037109 30.12817383 2.45037109 30.12817383 3.13037109 C32.76817383 3.13037109 35.40817383 3.13037109 38.12817383 3.13037109 C38.12817383 4.12037109 38.12817383 5.11037109 38.12817383 6.13037109 C39.18004883 6.03755859 39.18004883 6.03755859 40.25317383 5.94287109 C43.78077595 6.1729321 46.06801734 7.42237678 49.12817383 9.13037109 C49.12817383 9.79037109 49.12817383 10.45037109 49.12817383 11.13037109 C50.11817383 11.46037109 51.10817383 11.79037109 52.12817383 12.13037109 C52.12817383 12.79037109 52.12817383 13.45037109 52.12817383 14.13037109 C52.78817383 14.13037109 53.44817383 14.13037109 54.12817383 14.13037109 C54.12817383 14.79037109 54.12817383 15.45037109 54.12817383 16.13037109 C55.11817383 16.46037109 56.10817383 16.79037109 57.12817383 17.13037109 C57.12817383 17.79037109 57.12817383 18.45037109 57.12817383 19.13037109 C57.78817383 19.13037109 58.44817383 19.13037109 59.12817383 19.13037109 C61.16252913 22.86002249 62.12817383 24.79942151 62.12817383 29.13037109 C59.48817383 29.13037109 56.84817383 29.13037109 54.12817383 29.13037109 C54.12817383 28.47037109 54.12817383 27.81037109 54.12817383 27.13037109 C52.47817383 26.80037109 50.82817383 26.47037109 49.12817383 26.13037109 C49.12817383 25.47037109 49.12817383 24.81037109 49.12817383 24.13037109 C45.82817383 24.13037109 42.52817383 24.13037109 39.12817383 24.13037109 C39.12817383 23.47037109 39.12817383 22.81037109 39.12817383 22.13037109 C26.58817383 22.13037109 14.04817383 22.13037109 1.12817383 22.13037109 C1.12817383 22.79037109 1.12817383 23.45037109 1.12817383 24.13037109 C-5.80182617 24.13037109 -12.73182617 24.13037109 -19.87182617 24.13037109 C-19.87182617 25.12037109 -19.87182617 26.11037109 -19.87182617 27.13037109 C-24.16182617 27.13037109 -28.45182617 27.13037109 -32.87182617 27.13037109 C-32.87182617 27.79037109 -32.87182617 28.45037109 -32.87182617 29.13037109 C-39.30682617 29.62537109 -39.30682617 29.62537109 -45.87182617 30.13037109 C-45.87182617 30.79037109 -45.87182617 31.45037109 -45.87182617 32.13037109 C-49.50182617 32.13037109 -53.13182617 32.13037109 -56.87182617 32.13037109 C-56.87182617 33.12037109 -56.87182617 34.11037109 -56.87182617 35.13037109 C-57.58209961 35.19095703 -58.29237305 35.25154297 -59.02416992 35.31396484 C-59.94327148 35.39775391 -60.86237305 35.48154297 -61.80932617 35.56787109 C-62.72584961 35.64908203 -63.64237305 35.73029297 -64.58666992 35.81396484 C-66.83342349 35.89082085 -66.83342349 35.89082085 -67.87182617 37.13037109 C-69.55791583 37.20242621 -71.24683276 37.21423177 -72.93432617 37.19287109 C-73.85342773 37.18384766 -74.7725293 37.17482422 -75.71948242 37.16552734 C-76.42975586 37.15392578 -77.1400293 37.14232422 -77.87182617 37.13037109 C-77.87182617 35.48037109 -77.87182617 33.83037109 -77.87182617 32.13037109 C-78.53182617 32.13037109 -79.19182617 32.13037109 -79.87182617 32.13037109 C-79.87182617 29.49037109 -79.87182617 26.85037109 -79.87182617 24.13037109 C-80.86182617 24.13037109 -81.85182617 24.13037109 -82.87182617 24.13037109 C-82.87182617 20.83037109 -82.87182617 17.53037109 -82.87182617 14.13037109 C-81.22182617 14.13037109 -79.57182617 14.13037109 -77.87182617 14.13037109 C-77.87182617 13.14037109 -77.87182617 12.15037109 -77.87182617 11.13037109 C-74.24182617 11.13037109 -70.61182617 11.13037109 -66.87182617 11.13037109 C-66.54182617 10.14037109 -66.21182617 9.15037109 -65.87182617 8.13037109 C-62.90182617 8.13037109 -59.93182617 8.13037109 -56.87182617 8.13037109 C-56.87182617 7.47037109 -56.87182617 6.81037109 -56.87182617 6.13037109 C-52.25182617 6.13037109 -47.63182617 6.13037109 -42.87182617 6.13037109 C-42.87182617 5.14037109 -42.87182617 4.15037109 -42.87182617 3.13037109 C-38.58182617 3.13037109 -34.29182617 3.13037109 -29.87182617 3.13037109 C-29.87182617 2.47037109 -29.87182617 1.81037109 -29.87182617 1.13037109 C-19.94884372 -0.16707918 -9.9860854 -0.02176165 0 0 Z " fill="#FE0E0E" transform="translate(236.871826171875,81.86962890625)"/>
<path d="M0 0 C11.22 0 22.44 0 34 0 C34 0.66 34 1.32 34 2 C36.64 2 39.28 2 42 2 C42 2.99 42 3.98 42 5 C43.65 5 45.3 5 47 5 C47 5.99 47 6.98 47 8 C47.99 8 48.98 8 50 8 C50 12.95 50 17.9 50 23 C49.34 23 48.68 23 48 23 C47.896875 23.70125 47.79375 24.4025 47.6875 25.125 C46.90640997 28.39137647 45.57941257 31.0471852 44 34 C43.34 34 42.68 34 42 34 C42 34.66 42 35.32 42 36 C40.625 37.625 40.625 37.625 39 39 C38.34 39 37.68 39 37 39 C36.67 39.99 36.34 40.98 36 42 C35.34 42 34.68 42 34 42 C34 42.66 34 43.32 34 44 C31.69 44 29.38 44 27 44 C26.505 42.02 26.505 42.02 26 40 C26.99 39.67 27.98 39.34 29 39 C29 36.36 29 33.72 29 31 C28.34 31 27.68 31 27 31 C27 30.34 27 29.68 27 29 C15.45 29 3.9 29 -8 29 C-8 29.66 -8 30.32 -8 31 C-13.28 31 -18.56 31 -24 31 C-24 31.99 -24 32.98 -24 34 C-27.3 34 -30.6 34 -34 34 C-34 31.36 -34 28.72 -34 26 C-34.99 25.67 -35.98 25.34 -37 25 C-37 21.7 -37 18.4 -37 15 C-37.99 15 -38.98 15 -40 15 C-40 12.69 -40 10.38 -40 8 C-32.49783264 4.9482709 -26.05364285 4.66391289 -18 5 C-18 4.01 -18 3.02 -18 2 C-12.06 2 -6.12 2 0 2 C0 1.34 0 0.68 0 0 Z " fill="#FE0E0E" transform="translate(257,276)"/>
<path d="M0 0 C4.29 0 8.58 0 13 0 C13 2.64 13 5.28 13 8 C13.99 8 14.98 8 16 8 C16 10.64 16 13.28 16 16 C16.66 16 17.32 16 18 16 C18.84604751 18.94102229 19.13522521 21.56766268 19.125 24.625 C19.12886719 25.78902344 19.12886719 25.78902344 19.1328125 26.9765625 C19 29 19 29 18 31 C15.69 31 13.38 31 11 31 C10.67 31.99 10.34 32.98 10 34 C8.35 34 6.7 34 5 34 C5 34.66 5 35.32 5 36 C2.36 36.33 -0.28 36.66 -3 37 C-3 37.66 -3 38.32 -3 39 C-4.65 39 -6.3 39 -8 39 C-8 39.99 -8 40.98 -8 42 C-9.65 42 -11.3 42 -13 42 C-13 42.66 -13 43.32 -13 44 C-14.98 44 -16.96 44 -19 44 C-19 44.99 -19 45.98 -19 47 C-20.65 47 -22.3 47 -24 47 C-24 47.66 -24 48.32 -24 49 C-26.64 49.33 -29.28 49.66 -32 50 C-32 50.66 -32 51.32 -32 52 C-32.99 52 -33.98 52 -35 52 C-35 52.99 -35 53.98 -35 55 C-36.65 55 -38.3 55 -40 55 C-40.33 55.99 -40.66 56.98 -41 58 C-42.98 58 -44.96 58 -47 58 C-47 57.01 -47 56.02 -47 55 C-47.99 55 -48.98 55 -50 55 C-50 52.36 -50 49.72 -50 47 C-50.99 46.67 -51.98 46.34 -53 46 C-53 42.7 -53 39.4 -53 36 C-53.66 36 -54.32 36 -55 36 C-55 33.69 -55 31.38 -55 29 C-54.34 29 -53.68 29 -53 29 C-53 28.01 -53 27.02 -53 26 C-51.02 26 -49.04 26 -47 26 C-47 25.01 -47 24.02 -47 23 C-46.34 23 -45.68 23 -45 23 C-45 22.34 -45 21.68 -45 21 C-43.02 21 -41.04 21 -39 21 C-39 20.01 -39 19.02 -39 18 C-37.35 18 -35.7 18 -34 18 C-34 17.34 -34 16.68 -34 16 C-32.35 15.67 -30.7 15.34 -29 15 C-29 14.34 -29 13.68 -29 13 C-27.35 13 -25.7 13 -24 13 C-23.67 12.01 -23.34 11.02 -23 10 C-21.35 10 -19.7 10 -18 10 C-18 9.34 -18 8.68 -18 8 C-16.35 8 -14.7 8 -13 8 C-13 7.01 -13 6.02 -13 5 C-10.36 5 -7.72 5 -5 5 C-5 4.01 -5 3.02 -5 2 C-3.35 2 -1.7 2 0 2 C0 1.34 0 0.68 0 0 Z " fill="#2C3A4F" transform="translate(122,149)"/>
<path d="M0 0 C1.62490954 -0.02698189 3.24994633 -0.04638757 4.875 -0.0625 C6.23238281 -0.07990234 6.23238281 -0.07990234 7.6171875 -0.09765625 C10 0 10 0 12 1 C12.37400786 3.32716 12.70764733 5.66117862 13 8 C13.495 8.495 13.495 8.495 14 9 C14.04092937 11.33297433 14.04241723 13.66705225 14 16 C15.485 16.495 15.485 16.495 17 17 C17 20.3 17 23.6 17 27 C17.66 27 18.32 27 19 27 C19 28.65 19 30.3 19 32 C15.7 32 12.4 32 9 32 C8.67 32.99 8.34 33.98 8 35 C4.7 35 1.4 35 -2 35 C-2 35.66 -2 36.32 -2 37 C-5.3 37 -8.6 37 -12 37 C-12 37.99 -12 38.98 -12 40 C-14.64 40 -17.28 40 -20 40 C-20 40.66 -20 41.32 -20 42 C-26.48343811 44.63096039 -32.02330843 45.39325819 -39 45 C-39 45.99 -39 46.98 -39 48 C-41.31 48 -43.62 48 -46 48 C-46 47.01 -46 46.02 -46 45 C-46.99 45 -47.98 45 -49 45 C-49 42.36 -49 39.72 -49 37 C-49.99 36.67 -50.98 36.34 -52 36 C-52 33.69 -52 31.38 -52 29 C-52.66 29 -53.32 29 -54 29 C-54 24.71 -54 20.42 -54 16 C-52.35 16 -50.7 16 -49 16 C-49 15.34 -49 14.68 -49 14 C-46.36 14 -43.72 14 -41 14 C-41 13.01 -41 12.02 -41 11 C-38.36 11 -35.72 11 -33 11 C-33 10.34 -33 9.68 -33 9 C-29.78548731 7.39274365 -26.56387464 7.94251815 -23 8 C-23 7.34 -23 6.68 -23 6 C-19.92382812 5.70703125 -19.92382812 5.70703125 -16.84765625 5.4140625 C-16.23792969 5.27742187 -15.62820312 5.14078125 -15 5 C-14.67 4.34 -14.34 3.68 -14 3 C-9.71 3 -5.42 3 -1 3 C-0.67 2.01 -0.34 1.02 0 0 Z " fill="#FE0E0E" transform="translate(195,127)"/>
<path d="M0 0 C2.31 0 4.62 0 7 0 C7 0.99 7 1.98 7 3 C7.99 3.33 8.98 3.66 10 4 C10 7.3 10 10.6 10 14 C10.66 14 11.32 14 12 14 C15.13902852 20.80122845 15.33452052 26.56621057 15 34 C10.44573816 36.66590937 7.26053037 37.31563182 2 37 C1.67 37.99 1.34 38.98 1 40 C-2.3 40 -5.6 40 -9 40 C-9 40.66 -9 41.32 -9 42 C-11.64 42.33 -14.28 42.66 -17 43 C-17 43.66 -17 44.32 -17 45 C-18.65 45 -20.3 45 -22 45 C-22.33 45.99 -22.66 46.98 -23 48 C-25.31 48 -27.62 48 -30 48 C-30 48.66 -30 49.32 -30 50 C-31.65 50 -33.3 50 -35 50 C-35.33 50.99 -35.66 51.98 -36 53 C-37.32 53 -38.64 53 -40 53 C-40 51.35 -40 49.7 -40 48 C-40.99 47.67 -41.98 47.34 -43 47 C-43 44.69 -43 42.38 -43 40 C-43.66 40 -44.32 40 -45 40 C-48.0017506 32.92444501 -48.34855655 26.62951555 -48 19 C-46.35 19 -44.7 19 -43 19 C-43 18.01 -43 17.02 -43 16 C-41.35 16 -39.7 16 -38 16 C-38 15.34 -38 14.68 -38 14 C-35.36 14 -32.72 14 -30 14 C-30 13.01 -30 12.02 -30 11 C-27.36 11 -24.72 11 -22 11 C-22 10.01 -22 9.02 -22 8 C-20.02 8 -18.04 8 -16 8 C-16 7.34 -16 6.68 -16 6 C-13.36 6 -10.72 6 -8 6 C-8 5.01 -8 4.02 -8 3 C-6.865625 2.87625 -5.73125 2.7525 -4.5625 2.625 C-3.386875 2.41875 -2.21125 2.2125 -1 2 C-0.67 1.34 -0.34 0.68 0 0 Z " fill="#2C3A4E" transform="translate(173,188)"/>
<path d="M0 0 C2.64 0 5.28 0 8 0 C8 2.64 8 5.28 8 8 C8.99 8.33 9.98 8.66 11 9 C11 11.31 11 13.62 11 16 C11.66 16 12.32 16 13 16 C13 20.95 13 25.9 13 31 C11.35 31 9.7 31 8 31 C7.67 31.99 7.34 32.98 7 34 C4.69 34 2.38 34 0 34 C-0.33 34.99 -0.66 35.98 -1 37 C-2.32 37 -3.64 37 -5 37 C-5 37.66 -5 38.32 -5 39 C-6.98 39 -8.96 39 -11 39 C-11 39.99 -11 40.98 -11 42 C-12.65 42 -14.3 42 -16 42 C-16 42.66 -16 43.32 -16 44 C-18.475 44.495 -18.475 44.495 -21 45 C-21 45.66 -21 46.32 -21 47 C-22.65 47 -24.3 47 -26 47 C-26.33 47.99 -26.66 48.98 -27 50 C-28.65 50 -30.3 50 -32 50 C-32.33 50.99 -32.66 51.98 -33 53 C-33.66 53 -34.32 53 -35 53 C-35 53.66 -35 54.32 -35 55 C-37.31 55 -39.62 55 -42 55 C-42 53.35 -42 51.7 -42 50 C-42.99 49.67 -43.98 49.34 -45 49 C-45.144375 47.865625 -45.28875 46.73125 -45.4375 45.5625 C-45.61171478 42.19222799 -45.61171478 42.19222799 -47 41 C-47.07205511 39.31391034 -47.08386068 37.62499341 -47.0625 35.9375 C-47.05347656 35.01839844 -47.04445313 34.09929687 -47.03515625 33.15234375 C-47.01775391 32.08693359 -47.01775391 32.08693359 -47 31 C-47.99 31 -48.98 31 -50 31 C-50 29.35 -50 27.7 -50 26 C-49.01 26 -48.02 26 -47 26 C-47 25.34 -47 24.68 -47 24 C-45.35 24 -43.7 24 -42 24 C-42 23.01 -42 22.02 -42 21 C-41.01 21 -40.02 21 -39 21 C-39 20.01 -39 19.02 -39 18 C-37.35 18 -35.7 18 -34 18 C-34 17.34 -34 16.68 -34 16 C-32.35 16 -30.7 16 -29 16 C-29 15.01 -29 14.02 -29 13 C-27.35 13 -25.7 13 -24 13 C-23.67 12.01 -23.34 11.02 -23 10 C-21.35 10 -19.7 10 -18 10 C-18 9.34 -18 8.68 -18 8 C-16.35 8 -14.7 8 -13 8 C-13 7.01 -13 6.02 -13 5 C-10.36 5 -7.72 5 -5 5 C-5 4.01 -5 3.02 -5 2 C-3.35 2 -1.7 2 0 2 C0 1.34 0 0.68 0 0 Z " fill="#FE0E0E" transform="translate(159,252)"/>
<path d="M0 0 C1.32 0 2.64 0 4 0 C4 2.64 4 5.28 4 8 C4.99 8.33 5.98 8.66 7 9 C7 12.3 7 15.6 7 19 C7.99 19 8.98 19 10 19 C10 21.64 10 24.28 10 27 C10.66 27 11.32 27 12 27 C12 28.65 12 30.3 12 32 C11.34 32 10.68 32 10 32 C10 32.66 10 33.32 10 34 C8.02 34 6.04 34 4 34 C4 34.99 4 35.98 4 37 C2.35 37 0.7 37 -1 37 C-1.33 37.99 -1.66 38.98 -2 40 C-3.32 40 -4.64 40 -6 40 C-6 40.66 -6 41.32 -6 42 C-6.804375 42.12375 -7.60875 42.2475 -8.4375 42.375 C-9.283125 42.58125 -10.12875 42.7875 -11 43 C-11.495 43.99 -11.495 43.99 -12 45 C-12.66 45 -13.32 45 -14 45 C-14 45.66 -14 46.32 -14 47 C-16.97 47.495 -16.97 47.495 -20 48 C-20 48.66 -20 49.32 -20 50 C-21.65 50 -23.3 50 -25 50 C-25 50.99 -25 51.98 -25 53 C-25.99 53 -26.98 53 -28 53 C-28 53.66 -28 54.32 -28 55 C-30.475 55.495 -30.475 55.495 -33 56 C-33 56.66 -33 57.32 -33 58 C-33.99 58 -34.98 58 -36 58 C-36.33 58.99 -36.66 59.98 -37 61 C-37.99 60.67 -38.98 60.34 -40 60 C-40 58.35 -40 56.7 -40 55 C-40.99 55 -41.98 55 -43 55 C-43 52.36 -43 49.72 -43 47 C-43.99 47 -44.98 47 -46 47 C-46 44.36 -46 41.72 -46 39 C-46.66 39 -47.32 39 -48 39 C-48 35.7 -48 32.4 -48 29 C-47.34 29 -46.68 29 -46 29 C-46 28.34 -46 27.68 -46 27 C-45.01 27 -44.02 27 -43 27 C-42.67 26.01 -42.34 25.02 -42 24 C-40.68 24 -39.36 24 -38 24 C-38 23.01 -38 22.02 -38 21 C-37.01 21 -36.02 21 -35 21 C-35 20.34 -35 19.68 -35 19 C-33.35 19 -31.7 19 -30 19 C-30 18.01 -30 17.02 -30 16 C-29.01 16 -28.02 16 -27 16 C-27 15.34 -27 14.68 -27 14 C-25.35 13.67 -23.7 13.34 -22 13 C-22 12.34 -22 11.68 -22 11 C-20.35 11 -18.7 11 -17 11 C-17 10.01 -17 9.02 -17 8 C-15.02 8 -13.04 8 -11 8 C-11 7.01 -11 6.02 -11 5 C-9.35 5 -7.7 5 -6 5 C-6 4.34 -6 3.68 -6 3 C-4.35 3 -2.7 3 -1 3 C-0.67 2.01 -0.34 1.02 0 0 Z " fill="#FE0E0E" transform="translate(115,212)"/>
<path d="M0 0 C2.31 0 4.62 0 7 0 C7 1.65 7 3.3 7 5 C7.99 5.33 8.98 5.66 10 6 C10 8.31 10 10.62 10 13 C10.66 13 11.32 13 12 13 C13.16461426 16.49384279 13.13568319 19.33655389 13 23 C12 24 12 24 9.4375 24.0625 C8.633125 24.041875 7.82875 24.02125 7 24 C7 24.66 7 25.32 7 26 C5.35 26.33 3.7 26.66 2 27 C2 27.66 2 28.32 2 29 C0.35 29 -1.3 29 -3 29 C-3.495 30.485 -3.495 30.485 -4 32 C-5.65 32 -7.3 32 -9 32 C-9 32.66 -9 33.32 -9 34 C-9.66 34 -10.32 34 -11 34 C-11.33 34.99 -11.66 35.98 -12 37 C-13.65 37 -15.3 37 -17 37 C-17 37.99 -17 38.98 -17 40 C-18.65 40 -20.3 40 -22 40 C-22 40.66 -22 41.32 -22 42 C-23.1875 43.625 -23.1875 43.625 -25 45 C-27.6875 45.1875 -27.6875 45.1875 -30 45 C-30 45.99 -30 46.98 -30 48 C-30.66 48 -31.32 48 -32 48 C-32 48.66 -32 49.32 -32 50 C-32.99 50 -33.98 50 -35 50 C-35 50.99 -35 51.98 -35 53 C-35.99 53 -36.98 53 -38 53 C-38.99 55.475 -38.99 55.475 -40 58 C-40.99 58 -41.98 58 -43 58 C-43 59.65 -43 61.3 -43 63 C-43.99 63 -44.98 63 -46 63 C-46 63.99 -46 64.98 -46 66 C-47.65 66 -49.3 66 -51 66 C-51 62.7 -51 59.4 -51 56 C-50.01 56 -49.02 56 -48 56 C-48 53.36 -48 50.72 -48 48 C-47.01 48 -46.02 48 -45 48 C-45 45.36 -45 42.72 -45 40 C-44.34 40 -43.68 40 -43 40 C-43 39.01 -43 38.02 -43 37 C-42.01 37 -41.02 37 -40 37 C-40 35.35 -40 33.7 -40 32 C-39.34 32 -38.68 32 -38 32 C-37.67 31.01 -37.34 30.02 -37 29 C-36.34 29 -35.68 29 -35 29 C-35 28.34 -35 27.68 -35 27 C-34.01 27 -33.02 27 -32 27 C-32 26.01 -32 25.02 -32 24 C-31.34 24 -30.68 24 -30 24 C-29.67 23.01 -29.34 22.02 -29 21 C-28.34 21 -27.68 21 -27 21 C-27 20.34 -27 19.68 -27 19 C-26.01 19 -25.02 19 -24 19 C-24 18.01 -24 17.02 -24 16 C-23.34 16 -22.68 16 -22 16 C-22 15.34 -22 14.68 -22 14 C-20.02 13.67 -18.04 13.34 -16 13 C-16 12.34 -16 11.68 -16 11 C-15.34 11 -14.68 11 -14 11 C-14 10.01 -14 9.02 -14 8 C-12.02 8 -10.04 8 -8 8 C-8 7.01 -8 6.02 -8 5 C-4.77208445 2.8480563 -3.71599191 2.79913557 0 3 C0 2.01 0 1.02 0 0 Z " fill="#FE0D0D" transform="translate(83,122)"/>
<path d="M0 0 C4.29 0 8.58 0 13 0 C13 1.65 13 3.3 13 5 C13.66 5 14.32 5 15 5 C17.29971673 10.79035819 19.2854613 16.72392424 18 23 C16.73828125 24.74609375 16.73828125 24.74609375 15 26 C12.27492202 26.39078556 9.76878044 26.13616953 7 26 C7 26.66 7 27.32 7 28 C1.63999211 30.25684543 -2.1977825 31.36263859 -8 31 C-8 31.99 -8 32.98 -8 34 C-9.98 34 -11.96 34 -14 34 C-14.33 34.99 -14.66 35.98 -15 37 C-16.32 37 -17.64 37 -19 37 C-19 37.66 -19 38.32 -19 39 C-20.65 39 -22.3 39 -24 39 C-24.33 39.99 -24.66 40.98 -25 42 C-27.31 42 -29.62 42 -32 42 C-32 41.01 -32 40.02 -32 39 C-32.66 39 -33.32 39 -34 39 C-35.1577506 35.52674819 -35.06866652 32.63932552 -35 29 C-35.66 29 -36.32 29 -37 29 C-37 25.37 -37 21.74 -37 18 C-36.34 18 -35.68 18 -35 18 C-35 17.34 -35 16.68 -35 16 C-33.02 16 -31.04 16 -29 16 C-29 15.01 -29 14.02 -29 13 C-27.35 13 -25.7 13 -24 13 C-24 12.01 -24 11.02 -24 10 C-22.35 10 -20.7 10 -19 10 C-19 9.34 -19 8.68 -19 8 C-17.02 8 -15.04 8 -13 8 C-13 7.01 -13 6.02 -13 5 C-10.36 5 -7.72 5 -5 5 C-5 4.01 -5 3.02 -5 2 C-3.35 2 -1.7 2 0 2 C0 1.34 0 0.68 0 0 Z " fill="#2C3A4F" transform="translate(199,289)"/>
<path d="M0 0 C1.32 0.33 2.64 0.66 4 1 C4 1.66 4 2.32 4 3 C4.66 3 5.32 3 6 3 C6.495 6.96 6.495 6.96 7 11 C7.66 11 8.32 11 9 11 C9 13.64 9 16.28 9 19 C9.99 19.33 10.98 19.66 12 20 C11.67 21.32 11.34 22.64 11 24 C10.34 24 9.68 24 9 24 C8.505 25.485 8.505 25.485 8 27 C5.69 27 3.38 27 1 27 C1 27.66 1 28.32 1 29 C-1.64 29 -4.28 29 -7 29 C-7 29.99 -7 30.98 -7 32 C-9.64 32 -12.28 32 -15 32 C-15.33 32.99 -15.66 33.98 -16 35 C-17.32 35 -18.64 35 -20 35 C-20 35.66 -20 36.32 -20 37 C-22.64 37 -25.28 37 -28 37 C-28 37.99 -28 38.98 -28 40 C-29.65 40 -31.3 40 -33 40 C-33 40.66 -33 41.32 -33 42 C-38.75 43.125 -38.75 43.125 -41 42 C-41 39.69 -41 37.38 -41 35 C-41.99 34.67 -42.98 34.34 -44 34 C-44.144375 32.865625 -44.28875 31.73125 -44.4375 30.5625 C-44.61171478 27.19222799 -44.61171478 27.19222799 -46 26 C-46.04092937 23.66702567 -46.04241723 21.33294775 -46 19 C-44.35 19 -42.7 19 -41 19 C-41 18.01 -41 17.02 -41 16 C-39.35 16 -37.7 16 -36 16 C-36 15.34 -36 14.68 -36 14 C-34.02 14 -32.04 14 -30 14 C-30 13.01 -30 12.02 -30 11 C-27.36 11 -24.72 11 -22 11 C-22 10.01 -22 9.02 -22 8 C-20.35 8 -18.7 8 -17 8 C-17 7.34 -17 6.68 -17 6 C-14.36 6 -11.72 6 -9 6 C-9 5.01 -9 4.02 -9 3 C-6.36 3 -3.72 3 -1 3 C-0.67 2.01 -0.34 1.02 0 0 Z " fill="#2B394F" transform="translate(142,98)"/>
<path d="M0 0 C8.25 0 16.5 0 25 0 C25.495 1.485 25.495 1.485 26 3 C26.66 3 27.32 3 28 3 C28.19658808 4.41543415 28.38187546 5.83244031 28.5625 7.25 C28.71912109 8.43335938 28.71912109 8.43335938 28.87890625 9.640625 C29.00027349 12.00532874 28.69633257 13.7511037 28 16 C27.34 16 26.68 16 26 16 C26 16.66 26 17.32 26 18 C25.01 18 24.02 18 23 18 C23 18.99 23 19.98 23 21 C22.01 21 21.02 21 20 21 C20 21.66 20 22.32 20 23 C18.35 23.33 16.7 23.66 15 24 C15 24.66 15 25.32 15 26 C13.35 26 11.7 26 10 26 C10 26.99 10 27.98 10 29 C8.35 29 6.7 29 5 29 C5 29.66 5 30.32 5 31 C3.02 31 1.04 31 -1 31 C-1 31.99 -1 32.98 -1 34 C-3.64 34 -6.28 34 -9 34 C-9.33 34.99 -9.66 35.98 -10 37 C-11.98 36.67 -13.96 36.34 -16 36 C-16 34.68 -16 33.36 -16 32 C-14.35 32 -12.7 32 -11 32 C-11 31.01 -11 30.02 -11 29 C-9.35 29 -7.7 29 -6 29 C-5.67 28.01 -5.34 27.02 -5 26 C-3.35 26 -1.7 26 0 26 C0 25.34 0 24.68 0 24 C0.66 24 1.32 24 2 24 C2 23.34 2 22.68 2 22 C-0.64 21.67 -3.28 21.34 -6 21 C-6 21.66 -6 22.32 -6 23 C-8.40545638 24.20272819 -9.94996953 24.10071472 -12.625 24.0625 C-13.85089844 24.04896484 -13.85089844 24.04896484 -15.1015625 24.03515625 C-15.72804687 24.02355469 -16.35453125 24.01195312 -17 24 C-17 24.66 -17 25.32 -17 26 C-20.3 26 -23.6 26 -27 26 C-27 24.35 -27 22.7 -27 21 C-27.66 21 -28.32 21 -29 21 C-30.25069801 18.49860398 -30.13302467 16.72607309 -30.125 13.9375 C-30.12757813 13.03902344 -30.13015625 12.14054687 -30.1328125 11.21484375 C-30 9 -30 9 -29 8 C-26.66702567 7.95907063 -24.33294775 7.95758277 -22 8 C-21.67 7.01 -21.34 6.02 -21 5 C-19.2984375 4.7834375 -19.2984375 4.7834375 -17.5625 4.5625 C-14.19222799 4.38828522 -14.19222799 4.38828522 -13 3 C-10.81360547 2.92741054 -8.62499611 2.91626217 -6.4375 2.9375 C-4.64119141 2.95103516 -4.64119141 2.95103516 -2.80859375 2.96484375 C-1.88175781 2.97644531 -0.95492187 2.98804688 0 3 C0 2.01 0 1.02 0 0 Z " fill="#2B394E" transform="translate(239,318)"/>
<path d="M0 0 C2.31 0 4.62 0 7 0 C7 0.66 7 1.32 7 2 C8.485 2.495 8.485 2.495 10 3 C10.12375 4.03125 10.2475 5.0625 10.375 6.125 C10.87701375 9.92373584 10.87701375 9.92373584 12.0625 13.125 C12.98403073 15.95102756 13.17325184 18.05471874 13 21 C13.66 21 14.32 21 15 21 C15 23.31 15 25.62 15 28 C13.35 28.33 11.7 28.66 10 29 C10 29.66 10 30.32 10 31 C9.01 31 8.02 31 7 31 C6.67 31.99 6.34 32.98 6 34 C4.68 34 3.36 34 2 34 C1.67 34.99 1.34 35.98 1 37 C0.34 37 -0.32 37 -1 37 C-1 37.66 -1 38.32 -1 39 C-1.66 39 -2.32 39 -3 39 C-3.33 39.99 -3.66 40.98 -4 42 C-4.66 42 -5.32 42 -6 42 C-6 42.66 -6 43.32 -6 44 C-6.99 44 -7.98 44 -9 44 C-9 44.99 -9 45.98 -9 47 C-9.66 47 -10.32 47 -11 47 C-11.495 49.475 -11.495 49.475 -12 52 C-12.66 52 -13.32 52 -14 52 C-14 54.64 -14 57.28 -14 60 C-15.65 60 -17.3 60 -19 60 C-19 58.35 -19 56.7 -19 55 C-19.99 55 -20.98 55 -22 55 C-22 52.36 -22 49.72 -22 47 C-22.66 47 -23.32 47 -24 47 C-24 42.71 -24 38.42 -24 34 C-23.34 34 -22.68 34 -22 34 C-22 31.03 -22 28.06 -22 25 C-21.01 24.67 -20.02 24.34 -19 24 C-19 22.35 -19 20.7 -19 19 C-18.01 18.67 -17.02 18.34 -16 18 C-16 17.34 -16 16.68 -16 16 C-15.34 16 -14.68 16 -14 16 C-14 15.01 -14 14.02 -14 13 C-13.01 13 -12.02 13 -11 13 C-11 12.01 -11 11.02 -11 10 C-10.34 10 -9.68 10 -9 10 C-9 9.34 -9 8.68 -9 8 C-8.01 8 -7.02 8 -6 8 C-6 7.01 -6 6.02 -6 5 C-5.01 5 -4.02 5 -3 5 C-3 4.01 -3 3.02 -3 2 C-2.01 2 -1.02 2 0 2 C0 1.34 0 0.68 0 0 Z " fill="#FE0D0D" transform="translate(54,186)"/>
<path d="M0 0 C1.00088654 0.00007553 2.00177307 0.00015106 3.0329895 0.00022888 C4.1163559 0.00539017 5.19972229 0.01055145 6.31591797 0.01586914 C7.42289032 0.01728409 8.52986267 0.01869904 9.67037964 0.02015686 C13.2163154 0.02576767 16.7621887 0.03832203 20.30810547 0.05102539 C22.70784414 0.056039 25.1075838 0.06060215 27.50732422 0.06469727 C33.39927272 0.07574061 39.29118463 0.09248929 45.18310547 0.11352539 C45.67810547 1.59852539 45.67810547 1.59852539 46.18310547 3.11352539 C49.48310547 3.11352539 52.78310547 3.11352539 56.18310547 3.11352539 C56.18310547 4.10352539 56.18310547 5.09352539 56.18310547 6.11352539 C58.82310547 6.11352539 61.46310547 6.11352539 64.18310547 6.11352539 C64.18310547 6.77352539 64.18310547 7.43352539 64.18310547 8.11352539 C64.94623047 8.05165039 65.70935547 7.98977539 66.49560547 7.92602539 C69.18310547 8.11352539 69.18310547 8.11352539 70.99560547 9.30102539 C72.54988753 11.67335065 72.40847735 13.33393884 72.18310547 16.11352539 C69.21310547 16.11352539 66.24310547 16.11352539 63.18310547 16.11352539 C62.68810547 14.62852539 62.68810547 14.62852539 62.18310547 13.11352539 C48.98310547 13.11352539 35.78310547 13.11352539 22.18310547 13.11352539 C21.85310547 14.10352539 21.52310547 15.09352539 21.18310547 16.11352539 C14.58310547 16.11352539 7.98310547 16.11352539 1.18310547 16.11352539 C1.18310547 16.77352539 1.18310547 17.43352539 1.18310547 18.11352539 C-0.75439453 18.67602539 -0.75439453 18.67602539 -2.81689453 19.11352539 C-3.81689453 18.11352539 -3.81689453 18.11352539 -3.87939453 15.55102539 C-3.85876953 14.74665039 -3.83814453 13.94227539 -3.81689453 13.11352539 C-4.80689453 13.11352539 -5.79689453 13.11352539 -6.81689453 13.11352539 C-6.81689453 9.15352539 -6.81689453 5.19352539 -6.81689453 1.11352539 C-4.35528436 -0.1172797 -2.7519246 -0.00691438 0 0 Z " fill="#2B394E" transform="translate(181.81689453125,60.886474609375)"/>
<path d="M0 0 C1.98 0 3.96 0 6 0 C6 1.98 6 3.96 6 6 C6.66 6 7.32 6 8 6 C8 9.3 8 12.6 8 16 C7.34 16 6.68 16 6 16 C6 16.66 6 17.32 6 18 C2.04 18.495 2.04 18.495 -2 19 C-2 19.66 -2 20.32 -2 21 C-3.65 21 -5.3 21 -7 21 C-7.495 22.485 -7.495 22.485 -8 24 C-9.65 24 -11.3 24 -13 24 C-13 24.66 -13 25.32 -13 26 C-13.66 26 -14.32 26 -15 26 C-15.495 27.485 -15.495 27.485 -16 29 C-17.65 29 -19.3 29 -21 29 C-21 29.99 -21 30.98 -21 32 C-24.22791555 34.1519437 -25.28400809 34.20086443 -29 34 C-29 34.99 -29 35.98 -29 37 C-29.66 37 -30.32 37 -31 37 C-31 37.66 -31 38.32 -31 39 C-33.97 39.495 -33.97 39.495 -37 40 C-37 40.66 -37 41.32 -37 42 C-37.66 42 -38.32 42 -39 42 C-39.33 42.99 -39.66 43.98 -40 45 C-41.32 45 -42.64 45 -44 45 C-44.33 45.99 -44.66 46.98 -45 48 C-46.65 47.67 -48.3 47.34 -50 47 C-49.67 44.69 -49.34 42.38 -49 40 C-48.34 40 -47.68 40 -47 40 C-47 39.01 -47 38.02 -47 37 C-46.01 37 -45.02 37 -44 37 C-44 36.34 -44 35.68 -44 35 C-43.34 35 -42.68 35 -42 35 C-42 34.01 -42 33.02 -42 32 C-41.01 32 -40.02 32 -39 32 C-39 31.01 -39 30.02 -39 29 C-38.01 29 -37.02 29 -36 29 C-36 28.34 -36 27.68 -36 27 C-35.34 27 -34.68 27 -34 27 C-34 26.01 -34 25.02 -34 24 C-33.01 24 -32.02 24 -31 24 C-31 23.01 -31 22.02 -31 21 C-30.01 21 -29.02 21 -28 21 C-28 20.34 -28 19.68 -28 19 C-27.34 19 -26.68 19 -26 19 C-26 18.01 -26 17.02 -26 16 C-25.01 16 -24.02 16 -23 16 C-22.67 15.01 -22.34 14.02 -22 13 C-20.68 13 -19.36 13 -18 13 C-18 12.34 -18 11.68 -18 11 C-17.01 11 -16.02 11 -15 11 C-15 10.01 -15 9.02 -15 8 C-13.35 8 -11.7 8 -10 8 C-9.67 7.01 -9.34 6.02 -9 5 C-7.68 5 -6.36 5 -5 5 C-5 4.34 -5 3.68 -5 3 C-3.35 2.67 -1.7 2.34 0 2 C0 1.34 0 0.68 0 0 Z " fill="#2A384E" transform="translate(103,85)"/>
<path d="M0 0 C1.65 0 3.3 0 5 0 C5 0.66 5 1.32 5 2 C5.99 2.33 6.98 2.66 8 3 C8 5.31 8 7.62 8 10 C8.66 10 9.32 10 10 10 C10.33 12.64 10.66 15.28 11 18 C11.66 18 12.32 18 13 18 C13 22.29 13 26.58 13 31 C12.01 31 11.02 31 10 31 C10 31.99 10 32.98 10 34 C9.34 34 8.68 34 8 34 C8 37.96 8 41.92 8 46 C5.525 46.495 5.525 46.495 3 47 C3 46.01 3 45.02 3 44 C2.01 44 1.02 44 0 44 C0 42.35 0 40.7 0 39 C-0.99 39 -1.98 39 -3 39 C-3 38.01 -3 37.02 -3 36 C-3.66 36 -4.32 36 -5 36 C-5 27.42 -5 18.84 -5 10 C-4.34 10 -3.68 10 -3 10 C-2.67 8.35 -2.34 6.7 -2 5 C-1.34 5 -0.68 5 0 5 C0 3.35 0 1.7 0 0 Z " fill="#2A394D" transform="translate(56,252)"/>
<path d="M0 0 C0.33 0 0.66 0 1 0 C1.144375 1.134375 1.28875 2.26875 1.4375 3.4375 C1.61171478 6.80777201 1.61171478 6.80777201 3 8 C3.08713831 9.70772358 3.10700007 11.41898649 3.09765625 13.12890625 C3.09282227 14.68061523 3.09282227 14.68061523 3.08789062 16.26367188 C3.07951172 17.35228516 3.07113281 18.44089844 3.0625 19.5625 C3.05798828 20.65498047 3.05347656 21.74746094 3.04882812 22.87304688 C3.03699826 25.58208495 3.02051543 28.29101599 3 31 C-1.75 30.25 -1.75 30.25 -4 28 C-2.68 28 -1.36 28 0 28 C0 18.76 0 9.52 0 0 Z " fill="#FE0000" transform="translate(333,186)"/>
<path d="M0 0 C0.99 0.33 1.98 0.66 3 1 C-0.48484985 3.32323323 -2.30752863 3.34217236 -6.4375 3.5625 C-10.08685379 3.76593383 -13.48750853 3.95574578 -17 5 C-16.34 4.01 -15.68 3.02 -15 2 C-11.77734375 1.5234375 -11.77734375 1.5234375 -7.9375 1.375 C-3.64898349 1.58681708 -3.64898349 1.58681708 0 0 Z " fill="#FE0000" transform="translate(262,204)"/>
<path d="M0 0 C1.32 0 2.64 0 4 0 C4 0.66 4 1.32 4 2 C4.99 2.33 5.98 2.66 7 3 C6.67 3.66 6.34 4.32 6 5 C3.03 4.505 3.03 4.505 0 4 C0 2.68 0 1.36 0 0 Z " fill="#12363C" transform="translate(223,350)"/>
<path d="M0 0 C0 0.99 0 1.98 0 3 C-0.99 3.33 -1.98 3.66 -3 4 C-3 5.98 -3 7.96 -3 10 C-3.33 10 -3.66 10 -4 10 C-4 8.35 -4 6.7 -4 5 C-4.99 4.67 -5.98 4.34 -7 4 C-4.69 2.68 -2.38 1.36 0 0 Z " fill="#FE0000" transform="translate(118,77)"/>
<path d="M0 0 C0.66 0 1.32 0 2 0 C2 0.66 2 1.32 2 2 C-3.445 3.485 -3.445 3.485 -9 5 C-9 4.01 -9 3.02 -9 2 C-6.94921875 1.77213542 -4.8984375 1.54427083 -2.84765625 1.31640625 C-0.98859771 1.18113386 -0.98859771 1.18113386 0 0 Z " fill="#FE0000" transform="translate(173,167)"/>
<path d="M0 0 C0.99 0 1.98 0 3 0 C3 1.32 3 2.64 3 4 C2.01 4.33 1.02 4.66 0 5 C-0.66 4.67 -1.32 4.34 -2 4 C-2 3.34 -2 2.68 -2 2 C-1.34 2 -0.68 2 0 2 C0 1.34 0 0.68 0 0 Z " fill="#20283D" transform="translate(325,157)"/>
</svg>
